# xmcd
#
# Track frame offsets: 
#        150
#        14185
#        30009
#        48531
#        62033
#        71581
#        90234
#        101912
#        116097
#        127945
#        140919
#        154134
#        167046
#        180902
#        198422
#
# Disc length: 2882 seconds
#
# Revision: 0
# Processed by: cddbd v1.5PL3 Copyright (c) Steve Scherf et al.
# Submitted via: ExactAudioCopy v0.95a5
#
DISCID=cc0b400f
DTITLE=Various Artist - Heaven Bound - The Best of Bluegrass Gospel 2 - Disc 
DTITLE=2
DYEAR=2003
DGENRE=Gospel
TTITLE0=Bill Monroe - Wayfaring Stranger
TTITLE1=Jimmy Martin - Stormy Waters
TTITLE2=Dry Branch Fire Squad - Church by the Road
TTITLE3=The Seldom Scene - Heaven
TTITLE4=Doyle Lawson and Quicksilver - Rock My Soul
TTITLE5=The Wilson Brothers - Lonesome Old Home
TTITLE6=The Bluegrass Band - River of Death
TTITLE7=Larry Sparks - I've Just Seen the Rock of Ages
TTITLE8=Mac Wiseman - Little White Church
TTITLE9=Ralph Stanley - White Oak on the Hill
TTITLE10=Hot Rize - The Man in the Middle
TTITLE11=The Easter Brothers - Wore Out
TTITLE12=Larry Stephenson - Yes, I See God
TTITLE13=IIIrd Tyme Out - I Want to Stroll over Heaven
TTITLE14=Boone Creek - Drifting Too Far from the Shore
EXTD=UPC=6-10583-07652-3
EXTT0=
EXTT1=
EXTT2=
EXTT3=
EXTT4=
EXTT5=
EXTT6=
EXTT7=
EXTT8=
EXTT9=
EXTT10=
EXTT11=
EXTT12=
EXTT13=
EXTT14=
PLAYORDER=
